<svg xmlns="http://www.w3.org/2000/svg" xmlns:xlink="http://www.w3.org/1999/xlink" viewBox="0 0 337.95184 404.01888"><defs><style>.cls-1{fill:url(#Gradiente_sem_nome_25);}</style><linearGradient id="Gradiente_sem_nome_25" x1="168.97592" y1="404.01888" x2="168.97592" gradientUnits="userSpaceOnUse"><stop offset="0.1" stop-color="#ff7900"/><stop offset="0.9" stop-color="#aa0909"/></linearGradient></defs><g id="Camada_2" data-name="Camada 2"><g id="Camada_1-2" data-name="Camada 1"><path class="cls-1" d="M177.76944,404.01888a7.08769,7.08769,0,0,1,0-14.17538c59.53241,0,146.007-58.5357,146.007-150.26033,0-71.47384-39.71423-110.99946-57.32962-125.01391-12.12832,45.80521-34.03508,55.08531-46.551,56.40213-19.7507,2.07474-36.78122-12.09544-43.40689-27.16542-5.99062-13.62511-3.6096-27.02181,6.36785-35.83642,36.97328-32.65769,22.92769-49.76262,17.63961-56.20314-6.97694-8.498-23.92959-25.25161-31.97764-33.10413-30.91519,24.1978-97.248,82.76465-100.17067,117.0541-.49663,5.81585.96036,10.455,4.4523,14.1823,20.654,20.6505,31.06226,40.44965,30.77329,58.67933-.24226,15.288-7.97019,23.89671-9.76806,25.69632-12.50382,13.95388-26.42828,20.7301-41.51038,20.0241-15.65486-.69562-29.055-9.4341-38.08593-17.34891C15.59882,306.90581,62.579,350.304,77.867,362.576c24.06976,19.3181,45.20131,24.9661,54.64406,22.05212,26.81761-8.28512,99.68962-69.8144,106.0367-105.84809,1.36354-7.73485-.49317-13.22711-5.84181-17.28315-9.71269-7.35763-19.26791-10.13664-28.39746-8.27128-17.759,3.63729-29.62259,23.68907-29.73679,23.8898l-5.64627,9.90476-6.38342-9.44448c-4.7032-6.92157-20.256-25.26026-35.4938-26.89029-6.27613-.64717-12.03142,1.547-17.5358,6.79006-7.58776,7.22611-10.898,15.16515-10.1176,24.27048,2.29623,26.82107,39.863,57.52169,54.1457,67.0873a7.08946,7.08946,0,0,1-7.89059,11.78051c-2.32737-1.56081-57.03891-38.63274-60.37857-77.66-1.15417-13.47975,3.71342-25.506,14.46435-35.743,8.59486-8.18475,18.30063-11.75974,28.86121-10.61422,16.97,1.83421,31.6333,15.93,39.52216,25.11837,6.40937-7.97711,17.85418-19.20389,33.34292-22.37743,13.2998-2.73056,26.69476.92749,39.80594,10.8634,9.64348,7.30917,13.53167,18.04107,11.24063,31.03977-7.52894,42.73723-84.15935,107.14934-115.81168,116.933-16.52006,5.10812-42.47248-4.29137-67.70333-24.54388C51.15665,359.31592-6.49309,305.86757.60151,219.232l1.53313-18.73669L13.35277,215.5809c.16958.22668,17.94071,23.632,39.62252,24.55946,10.59865.42914,20.853-4.75512,30.40991-15.47836l.44125-.45336c.1592-.16093,5.56321-5.66011,5.57706-16.31241.019-13.95042-9.24549-30.59679-26.7882-48.14124-6.46821-6.89907-9.23684-15.33819-8.39067-25.24642C58.47967,84.64213,160.4361,6.93714,164.7742,3.65286L169.60026,0l4.36405,4.19447c1.12649,1.08323,27.69839,26.655,37.48895,38.57736,18.58441,22.63526,12.12139,48.1447-19.21082,75.82232-7.11537,6.28479-4.79318,14.91945-2.77728,19.50672,4.44538,10.11068,16.10995,20.11926,28.94773,18.773,16.28991-1.71482,29.63643-22.00194,36.61683-55.66325l2.03494-9.81133,8.57409,5.186c2.952,1.78749,72.31309,44.87253,72.31309,142.99787C337.95184,339.95976,243.08136,404.01888,177.76944,404.01888Z"/></g></g></svg>